<svg xmlns="http://www.w3.org/2000/svg" viewBox="0 0 512 512">
  <defs>
    <linearGradient id="grad" x1="0%" y1="0%" x2="100%" y2="100%">
      <stop offset="0%" style="stop-color:#6c63ff;stop-opacity:1" />
      <stop offset="100%" style="stop-color:#00d4aa;stop-opacity:1" />
    </linearGradient>
  </defs>
  <circle cx="256" cy="256" r="240" fill="url(#grad)"/>
  <path d="M256 80c-97 0-176 79-176 176s79 176 176 176 176-79 176-176S353 80 256 80zm0 320c-79.4 0-144-64.6-144-144S176.6 112 256 112s144 64.6 144 144-64.6 144-144 144z" fill="white" opacity="0.3"/>
  <circle cx="256" cy="256" r="60" fill="white"/>
  <path d="M256 130c-10 0-18 8-18 18v90c0 10 8 18 18 18s18-8 18-18v-90c0-10-8-18-18-18z" fill="white" opacity="0.5"/>
</svg>
